<?xml version="1.0" encoding="utf-8"?>
<!-- Generator: Adobe Illustrator 19.0.0, SVG Export Plug-In . SVG Version: 6.00 Build 0)  -->
<svg version="1.1" id="Layer_1" xmlns="http://www.w3.org/2000/svg" xmlns:xlink="http://www.w3.org/1999/xlink" x="0px" y="0px"
	 viewBox="-294 419 6.7 3.9" style="enable-background:new -294 419 6.7 3.9;" xml:space="preserve">
<style type="text/css">
	.st0{enable-background:new    ;}
	.st1{fill:#C9BA2E;}
</style>
<g class="st0">
	<path class="st1" d="M-287.4,419.7l-3.1,3.1c0,0-0.1,0.1-0.2,0.1s-0.1,0-0.2-0.1l-3.1-3.1c0,0-0.1-0.1-0.1-0.2c0-0.1,0-0.1,0.1-0.2
		l0.3-0.3c0,0,0.1-0.1,0.2-0.1c0.1,0,0.1,0,0.2,0.1l2.6,2.6l2.6-2.6c0,0,0.1-0.1,0.2-0.1s0.1,0,0.2,0.1l0.3,0.3c0,0,0.1,0.1,0.1,0.2
		C-287.3,419.6-287.3,419.7-287.4,419.7z"/>
</g>
</svg>
