<?xml version="1.0" encoding="utf-8"?>
<!-- Generator: Adobe Illustrator 19.0.0, SVG Export Plug-In . SVG Version: 6.00 Build 0)  -->
<svg version="1.1" id="Layer_1" xmlns="http://www.w3.org/2000/svg" xmlns:xlink="http://www.w3.org/1999/xlink" x="0px" y="0px"
	 viewBox="0 0 546.4 89.4" style="enable-background:new 0 0 546.4 89.4;" xml:space="preserve">
<style type="text/css">
	.st0{fill:#C9BA2E;}
	.st1{fill:#333333;}
	.st2{fill:#CCCCCC;}
</style>
<g id="XMLID_3_">
	<path id="XMLID_6_" class="st0" d="M89.5,4.9c-1,1.2-1.5,2.6-1.5,4.1v28.2c0,3.2-0.5,6.2-1.6,9.1c-1,2.8-2.5,5.4-4.4,7.5
		c-1.9,2.2-4.2,3.8-7,5.1c-2.7,1.2-5.7,1.9-9.1,1.9c-2.5,0-4.9-0.4-7.3-1.2c-2.4-0.8-4.6-1.9-6.6-3.3c-2-1.4-3.8-3.1-5.3-5.1
		c-1.5-2-2.7-4.1-3.5-6.5c-0.2-0.5-0.3-1.4-0.4-2.7c-0.1-1.3-0.2-2.8-0.3-4.6c-0.1-1.8-0.1-3.7-0.1-5.9c0-2.1,0-4.2,0-6.4
		c0-2,0-3.9,0-5.8c0-1.9,0-3.6,0-5.1c0-1,0-2,0-2.8c0-0.9,0-1.6,0-2.1c0-2.1-0.6-3.6-1.7-4.5c-1.1-0.9-2.6-1.5-4.5-2
		c-0.2-0.1-0.2-0.2-0.2-0.4c0-0.2,0.1-0.3,0.3-0.3c2.1,0.1,4.1,0.2,6.2,0.2c2,0.1,4.1,0.1,6.1,0.1c1,0,2,0,3,0c1,0,2.1,0,3.1-0.1
		c0.2,0,0.3,0.1,0.3,0.2c0.1,0.2,0,0.3-0.2,0.4c-0.6,0.3-1.2,0.7-1.7,1.1c-0.6,0.4-1.2,0.9-1.7,1.4c-0.5,0.5-1,1.1-1.3,1.7
		c-0.3,0.6-0.5,1.2-0.5,1.9c0,2.7,0,5.4,0,8.1s0,5.3-0.1,8c-0.1,2.7-0.1,5.4-0.1,8.1c0,2.7,0,5.4,0,8.1c0,2.4,0.4,4.5,1.2,6.5
		c0.8,1.9,2,3.6,3.5,5c1.5,1.4,3.2,2.5,5.2,3.2c2,0.8,4.2,1.1,6.5,1.1c2.4,0,4.6-0.4,6.6-1.2c2-0.8,3.8-1.9,5.2-3.3
		c1.5-1.4,2.6-3.1,3.5-5.1c0.9-2,1.3-4.2,1.3-6.6c0-2.6,0-5.3,0-7.9c0-2.7,0-5.4-0.1-8s-0.1-5.3-0.1-7.9s0-5.3,0-8
		c0-2.1-0.5-3.7-1.6-4.7c-1.1-1-2.6-1.6-4.6-1.9c-0.2-0.1-0.2-0.2-0.2-0.4c0-0.2,0.1-0.3,0.3-0.3c0.9,0.1,1.8,0.2,2.7,0.2
		c0.9,0,1.8,0,2.7,0h3.7c1.1,0,2.3,0,3.3,0c1.1,0,2.2,0,3.4,0h0.9l0.1,0.6C91.7,2.9,90.5,3.6,89.5,4.9z"/>
	<path id="XMLID_8_" class="st0" d="M150,59.5c-0.5-0.1-1-0.1-1.5-0.1s-0.9,0-1.4-0.1c-1-0.1-2-0.2-3-0.2c-1-0.1-2-0.1-3-0.1
		c-0.8,0-1.7,0-2.6,0.1c-0.9,0.1-1.8,0.1-2.6,0.2c-0.4,0.1-0.8,0.1-1.2,0.1c-0.4,0-0.8,0-1.2,0.1c-0.1,0-0.2-0.1-0.2-0.2
		c-0.1-0.1,0-0.2,0.1-0.4c0.1-0.1,0.1,0,0,0c-0.1,0.1-0.1,0.1,0,0c0.3-0.3,0.7-0.6,1.1-1c0.4-0.4,0.7-0.8,0.7-1
		c0-0.3-0.2-0.8-0.6-1.7c-0.4-0.9-1-1.9-1.6-3.1c-0.7-1.2-1.4-2.6-2.3-4s-1.7-3-2.6-4.4c-0.9-1.5-1.7-2.9-2.6-4.2
		c-0.8-1.3-1.6-2.5-2.2-3.6c-0.3-0.5-0.5-0.9-0.7-1.2s-0.3-0.5-0.5-0.8c-0.4,0.7-0.9,1.5-1.5,2.5c-0.6,1-1.4,2.2-2.1,3.5
		c-0.9,1.5-1.9,3.1-2.9,4.7c-1,1.7-1.9,3.3-2.8,4.8c-0.9,1.6-1.6,3-2.1,4.4c-0.6,1.4-0.9,2.5-1,3.5c0.4,0.4,0.8,0.8,1.4,1
		c0.5,0.3,1.1,0.4,1.7,0.4v0.6c-1.5-0.1-2.9-0.2-4.3-0.3c-1.4-0.1-2.8-0.1-4.2-0.1c-1.3,0-2.6,0.1-3.8,0.2c-1.2,0.1-2.5,0.2-3.8,0.3
		v-0.6c1.7-0.1,3.3-0.8,4.9-2.2c1.6-1.3,3.2-3,4.7-5c1.5-2,3-4.1,4.4-6.5c1.4-2.4,2.7-4.7,4-6.8c0.9-1.7,1.8-3.2,2.7-4.6
		c0.9-1.4,1.6-2.6,2.4-3.6c-0.6-0.9-1.2-2-1.7-3.1c-0.6-1.1-1.2-2.3-1.9-3.6c-1-2.1-2.2-4.3-3.4-6.6c-1.2-2.3-2.6-4.4-4-6.4
		c-1.5-2-3-3.7-4.7-5.1c-1.7-1.4-3.5-2.3-5.6-2.6c-0.2-0.1-0.2-0.2-0.2-0.4c0-0.2,0.1-0.3,0.3-0.3c1.3,0.1,2.6,0.2,3.9,0.3
		c1.3,0.1,2.6,0.2,4,0.2c1,0,2,0,3-0.1c1-0.1,2-0.2,3.1-0.3c0.7-0.1,1.5-0.2,2.2-0.2c0.8-0.1,1.5-0.1,2.3-0.1c0.2,0,0.2,0.1,0.3,0.2
		c0,0.2,0,0.3-0.2,0.3c-0.8,0.2-1.5,0.6-2.1,1.1c-0.6,0.5-1,1.3-1,2.1c0,0.6,0.2,1.3,0.5,2.1c0.3,0.9,0.8,1.8,1.3,2.7s1.2,2,1.9,3
		c0.7,1.1,1.4,2.1,2.1,3.1c0.9,1.4,1.7,2.8,2.6,4.2c0.9,1.4,1.5,2.6,2,3.5c0.5-0.8,1.1-1.9,2-3.1c0.9-1.2,1.8-2.6,2.9-4
		c0.8-1.1,1.6-2.2,2.3-3.3c0.8-1.1,1.5-2.1,2.1-3.1c0.6-1,1.1-1.9,1.5-2.7c0.4-0.8,0.6-1.5,0.6-2.1c0-0.4-0.1-0.8-0.4-1.2
		c-0.3-0.4-0.6-0.7-1-1c-0.4-0.3-0.8-0.5-1.2-0.8c-0.4-0.2-0.8-0.4-1.2-0.5c-0.2-0.1-0.2-0.2-0.2-0.4c0-0.2,0.1-0.2,0.3-0.2
		c2.8,0.3,5.7,0.5,8.5,0.5c1.2,0,2.4,0,3.6-0.1c1.2-0.1,2.4-0.1,3.6-0.2c0.2,0,0.2,0.1,0.2,0.3s-0.1,0.3-0.2,0.3
		c-1.5,0.1-3,0.7-4.4,1.9s-2.8,2.6-4.2,4.4c-1.4,1.7-2.7,3.6-4,5.7c-1.3,2.1-2.5,4.1-3.7,6c-0.9,1.5-1.7,2.8-2.4,4
		c-0.8,1.2-1.5,2.3-2.1,3.2c1.1,1.5,2.1,3,3.1,4.8c1,1.7,2,3.5,3,5.3c1.2,2.2,2.4,4.4,3.7,6.6c1.3,2.2,2.7,4.3,4.1,6.3
		c1.4,1.9,2.9,3.6,4.5,5c1.6,1.4,3.3,2.3,5,2.8L150,59.5z"/>
	<path id="XMLID_10_" class="st0" d="M187.1,53.3c-0.2,1.3-0.4,2.5-0.6,3.8V57l-0.2,1.9c0,0.2-0.1,0.3-0.3,0.3c0-0.1-0.1,0-0.2,0.2
		l-1.2,0.2c-1.7,0-3.3,0-5,0c-1.7,0-3.3,0-5-0.1c-1.7,0-3.3,0-4.9,0c-1.6,0-3.2,0-4.9,0c-1.7,0-3.3,0-5,0c-1.7,0-3.3,0.1-5,0.2v-0.6
		c1.1-0.1,2-0.3,2.7-0.7c0.7-0.4,1.2-1,1.6-1.7c0.4-0.7,0.6-1.5,0.7-2.4c0.1-0.9,0.2-1.8,0.2-2.8V7.4c0-0.8-0.1-1.4-0.3-1.8
		c-0.2-0.4-0.4-0.8-0.7-1c-0.3-0.3-0.7-0.5-1-0.6c-0.4-0.1-0.8-0.2-1.3-0.4c-0.5-0.1-1-0.2-1.5-0.4c-0.5-0.2-1-0.5-1.6-0.9
		c-0.1-0.1-0.1-0.2-0.1-0.3c0.1-0.1,0.1-0.2,0.2-0.2h4.7c1.7,0.1,3.8,0.1,6.1,0.1c2.4,0,4.7,0,6.8,0c1.7,0,3.3,0,4.9,0
		c1.6,0,3-0.1,4.3-0.1c1.3-0.1,2.4-0.1,3.3-0.2c0.9-0.1,1.5-0.2,1.8-0.4c0.3-0.2,0.5-0.1,0.5,0.2c-0.2,1.5-0.4,2.9-0.7,4.4
		c-0.3,1.5-0.6,2.8-0.9,4.2c-0.1,0.3-0.1,0.5-0.2,0.7c-0.1,0.2-0.1,0.4-0.2,0.7c-0.1,0.2-0.2,0.2-0.4,0.2c-0.2,0-0.3-0.1-0.3-0.3
		c-0.2-2.5-1.1-4.2-2.6-5c-1.5-0.8-3.4-1.2-5.8-1.2h-8.3v22h12.2c0.4,0,0.8-0.1,1.4-0.4c0.5-0.2,1.1-0.5,1.7-0.7
		c0.4-0.2,0.8-0.4,1.2-0.5c0.4-0.2,0.8-0.3,1.2-0.4c0.3-0.1,0.4,0,0.4,0.3c-0.1,0.8-0.2,1.7-0.3,2.5c-0.1,0.8-0.2,1.6-0.3,2.4
		c-0.2,1-0.3,2-0.4,3c-0.1,1-0.2,1.9-0.4,2.9c0,0.2-0.1,0.3-0.2,0.3c-0.1,0.1-0.2,0-0.4-0.1c-0.3-0.3-0.5-0.6-0.6-1
		c-0.2-0.4-0.3-0.8-0.4-1.2c-0.1-0.4-0.2-0.8-0.4-1.2c-0.2-0.4-0.4-0.8-0.9-1.2c-0.3-0.4-0.9-0.6-1.9-0.9c-1-0.2-2-0.4-3.1-0.4
		c-1.1-0.1-2.2-0.1-3.3-0.1c-1,0-1.8,0-2.3,0h-3.2v21.6c0.5,0.9,1.2,1.6,1.9,2.3c0.8,0.6,1.6,1.1,2.5,1.6c0.9,0.4,1.9,0.7,2.8,0.9
		c1,0.2,1.9,0.3,2.9,0.3c2.4,0,4.5-0.6,6.3-1.9c1.8-1.3,3-3.1,3.5-5.5l0.5,0.1C187.5,50.8,187.3,52,187.1,53.3z"/>
	<path id="XMLID_12_" class="st0" d="M266.9,59.5c-2.8,0-5.6,0-8.4,0c-2.8,0-5.6-0.1-8.4-0.2c-0.3,0-0.4-0.1-0.3-0.4
		c0.1-0.2,0.1-0.3,0.2-0.5c0.1-0.2,0.1-0.3,0.2-0.5c0.2-0.6,0.4-1.2,0.6-1.8c0.2-0.6,0.3-1.2,0.3-1.7c0-3.9-0.2-8-0.6-12.2
		c-0.4-4.2-0.8-8.2-1.3-12.1v0.1c-0.3-2.4-0.6-4.7-0.8-6.8s-0.5-4.3-0.7-6.8c-2.6,4.9-5.1,9.9-7.4,15.1c-2.3,5.2-4.7,10.3-7.1,15.3
		c-0.9,2-1.9,4-2.8,6.1c-1,2-1.9,4-2.9,6.1c-0.1,0.1-0.1,0.2-0.2,0.2c-0.1,0-0.2-0.1-0.3-0.2c-3.3-4.5-6.1-9.2-8.4-14.2
		c-2.4-5-4.6-9.9-6.7-14.7c-1.1-2.4-2.1-4.7-3-6.8c-0.9-2.1-2-4.3-3.3-6.6c-0.2,1.8-0.3,3.6-0.5,5.2c-0.2,1.7-0.4,3.4-0.6,5.2
		c-0.6,4.4-1.1,8.8-1.5,13.3c-0.4,4.5-0.6,9-0.6,13.5c0,1.4,0.3,2.3,0.9,2.8c0.6,0.4,1.4,0.8,2.4,1.2c0.3,0.1,0.6,0.2,1,0.3
		c0.4,0.1,0.7,0.3,1.1,0.4c0.2,0.1,0.2,0.2,0.2,0.4c-0.1,0.2-0.2,0.2-0.3,0.2c-2,0-3.9-0.1-5.8-0.2c-2-0.2-3.9-0.2-5.8-0.2
		c-0.7,0-1.4,0-2.1,0s-1.4,0.1-2.1,0.2c-0.2,0.1-0.3,0-0.3-0.2c-0.1-0.2,0-0.3,0.2-0.4c0.2-0.1,0.3-0.1,0.5-0.1c0.2,0,0.4,0,0.5-0.1
		c0.8-0.1,1.5-0.3,2.1-0.5c0.6-0.2,1.1-0.7,1.7-1.6c0.2-0.2,0.4-1.1,0.6-2.8c0.3-1.6,0.5-3.7,0.9-6.2c0.3-2.5,0.6-5.3,1-8.5
		c0.4-3.2,0.7-6.4,1.1-9.7c0.4-3.3,0.7-6.6,1-9.8c0.3-3.2,0.6-6.2,0.9-8.9c0.2-1.2,0.3-2.5,0.4-3.7c0.1-1.2,0.2-2.4,0.4-3.4
		c0.1-1,0.2-2.2,0.4-3.5l0.5-0.2c1.2,2.3,2.4,4.4,3.4,6.2c1,1.9,2.2,4,3.5,6.5c1.3,2.5,2.7,5,4,7.6c1.4,2.6,2.7,5.2,4,7.9
		c1.3,2.6,2.5,5,3.6,7.3c1.3,2.7,2.5,5.4,3.5,7.9c1.1,2.5,1.9,4.5,2.6,5.8c1.5-3,2.8-6,4.2-9.1c1.3-3.1,2.7-6.1,4-9.1
		c1.1-2.3,2.2-4.7,3.2-7c1.1-2.4,2.2-4.7,3.3-7c0.3-0.6,0.6-1.2,0.9-1.9c0.3-0.6,0.6-1.2,0.8-1.9c0.5-1.1,1.1-2.4,1.9-3.8
		c0.8-1.5,1.6-2.9,2.3-4.3c0.7-1.4,1.6-3,2.7-4.9l0.5,0.2c0.1,1.2,0.2,2.4,0.3,3.3c0.1,1,0.2,2.1,0.3,3.3c0.1,1.2,0.2,2.4,0.4,3.5
		c0.3,2.6,0.5,5.4,0.8,8.5c0.3,3.1,0.6,6.3,0.9,9.4c0.3,3.2,0.7,6.3,1.1,9.3c0.4,3,0.7,5.8,1.1,8.2c0.4,2.5,0.7,4.5,1.1,6.2
		s0.7,2.7,1,3.1c0.7,1,1.5,1.7,2.4,2.1c0.9,0.3,1.7,0.6,2.5,0.7c0.5,0.1,0.9,0.2,1.4,0.3c0.5,0.1,1,0.3,1.6,0.5L266.9,59.5z"/>
	<path id="XMLID_14_" class="st0" d="M308.5,49.8c-1,2.1-2.4,3.9-4,5.4c-1.7,1.5-3.6,2.6-5.8,3.4c-2.2,0.8-4.5,1.2-7,1.2
		c-1.7,0-3.3,0-5,0c-1.7,0-3.3,0-5.1-0.1c-1.7-0.1-3.3-0.1-5-0.1c-1.7,0-3.4,0-5,0c-0.2,0-0.2-0.1-0.3-0.3c0-0.2,0-0.3,0.2-0.4
		c1.2-0.4,2.1-0.7,2.8-1.1c0.7-0.4,1.2-0.9,1.6-1.4c0.3-0.5,0.6-1.2,0.7-2c0.1-0.8,0.2-1.8,0.2-3.1V7.4c0-0.9-0.1-1.6-0.3-2.1
		c-0.2-0.5-0.4-0.9-0.7-1.2c-0.3-0.3-0.7-0.4-1-0.5s-0.8-0.1-1.2-0.2c-0.6-0.1-1.1-0.1-1.6-0.2c-0.5-0.1-0.9-0.4-1.4-1
		c-0.1-0.1-0.1-0.2,0-0.3c0.1-0.1,0.2-0.1,0.4-0.1c1.6,0.3,3.1,0.5,4.5,0.5c1.1,0,2.3-0.1,3.3-0.2c1.1-0.1,2.1-0.2,3.2-0.3
		c1.1-0.1,2.2-0.2,3.3-0.2s2.1-0.1,3.2-0.1c1.8,0,3.6,0.2,5.5,0.7c1.9,0.5,3.7,1.2,5.2,2.3c1.6,1,2.8,2.3,3.8,3.8s1.5,3.4,1.5,5.4
		c0,1.3-0.2,2.5-0.6,3.7c-0.4,1.2-1,2.3-1.7,3.5c-0.7,1.1-1.5,2.2-2.3,3.2c-0.9,1-1.7,1.9-2.6,2.8c1.8,0.6,3.5,1.3,5.1,2.3
		c1.6,1,2.9,2.2,4.1,3.5c1.2,1.3,2.1,2.9,2.7,4.6c0.6,1.7,1,3.5,1,5.4C310,45.3,309.5,47.7,308.5,49.8z M302.5,40.7
		c-0.5-1.5-1.1-2.9-2-4.2c-0.9-1.3-1.9-2.5-3-3.5c-1.2-1.1-2.4-1.9-3.8-2.6c-1.4-0.7-2.9-1.1-4.6-1.2c-1.7-0.1-3.2-0.2-4.7-0.2h-0.5
		v22.1c0,1,0.3,1.9,0.9,2.6c0.6,0.8,1.3,1.4,2.1,1.9c0.9,0.5,1.8,1,2.8,1.2c1,0.3,1.9,0.4,2.7,0.4c1.6,0,3.1-0.3,4.4-1
		c1.3-0.7,2.5-1.6,3.5-2.7c1-1.1,1.7-2.4,2.3-3.9s0.8-3,0.8-4.5C303.2,43.7,303,42.2,302.5,40.7z M297.3,10.7
		c-0.4-1.3-1.1-2.5-1.9-3.5c-0.8-1-1.9-1.8-3.1-2.4c-1.2-0.6-2.6-0.9-4.1-0.9c-0.7,0-1.5,0.1-2.2,0.2c-0.7,0.2-1.5,0.3-2.2,0.5v21.2
		h0.5c2,0,3.9-0.1,5.6-0.4c1.7-0.3,3.1-0.8,4.3-1.6c1.2-0.8,2.1-1.9,2.8-3.3c0.6-1.4,1-3.3,1-5.6C297.9,13.5,297.7,12.1,297.3,10.7z
		"/>
	<path id="XMLID_18_" class="st0" d="M371.1,43.8c-1.6,3.4-3.8,6.4-6.6,8.9c-2.7,2.5-5.9,4.5-9.6,5.9c-3.6,1.4-7.4,2.1-11.4,2.1
		c-2.2,0-4.4-0.4-6.8-1.1c-2.3-0.7-4.6-1.7-6.8-3c-2.2-1.3-4.3-2.8-6.3-4.6c-2-1.8-3.8-3.7-5.3-5.7c-1.5-2-2.7-4.1-3.6-6.4
		c-0.9-2.2-1.3-4.5-1.3-6.8c0-5.1,0.5-9.5,1.4-13.1c0.9-3.7,2.5-6.8,4.6-9.4c2.1-2.6,4.9-4.7,8.3-6.3c3.4-1.6,7.6-3,12.6-4
		c0.2-0.1,0.4-0.1,0.6-0.1c0.3,0,0.5,0,0.7,0c4.5,0,8.7,0.8,12.6,2.5c3.9,1.7,7.3,3.9,10.1,6.8c2.9,2.9,5.1,6.3,6.8,10.2
		c1.6,3.9,2.4,8.1,2.4,12.6C373.6,36.6,372.8,40.4,371.1,43.8z M365.3,22c-1-3.4-2.6-6.5-4.5-9.3c-2-2.7-4.5-5-7.4-6.7
		s-6.3-2.6-10.2-2.6c-3.6,0-6.8,0.7-9.6,2s-5.2,3.1-7.1,5.4c-1.9,2.3-3.4,4.9-4.4,7.9c-1,3-1.5,6.3-1.5,9.7c0,3.5,0.5,6.9,1.6,10.4
		c1.1,3.5,2.6,6.6,4.7,9.3c2,2.7,4.6,5,7.5,6.7c3,1.7,6.4,2.6,10.2,2.6c3.6,0,6.7-0.7,9.5-2.1c2.8-1.4,5.1-3.2,7-5.5
		c1.9-2.3,3.3-5,4.3-8c1-3,1.4-6.2,1.4-9.6C366.8,28.9,366.3,25.4,365.3,22z"/>
	<path id="XMLID_54_" class="st1" d="M15.3,59.2c2.8-4.2,6.1-10,6.9-10.4c8.1-1.6,15.1-1.5,18.9-1.4c4.5,0.2,18.2,2.4,37.2,11.7
		c0.6,0.5,23,11.9,24,12.6c1,0.7,8.8,4.7,17.3,5.8c8,1,15.9-0.7,23.1-6.6c9.4-7,16.4-13.8,22.1-18.9c3.3-2.4,5.1-3.7,9.2-4.4
		c9.7-2.2,17.2,2.4,19.9,6c8.8,14.3,0.9,22.1-3.3,26.2c-3.6,3.5-5.2,4.7-12.1,9.6c6.3-4.8,13.1-11.8,14.7-15.5
		c4.4-8.1-0.4-17.1-3.7-19.6c-12-8-20.6-1.1-22.5,0.5c-1.4,1-9.6,9.9-21.8,21.2c-10.5,8.4-17.4,7-26.8,6.8
		c-19.6-2.8-26.1-9.1-41.2-15.8c-11.1-5-15-6.8-28.8-10.4C30.1,52.7,18.7,57,15.3,59.2z"/>
	<path id="XMLID_4_" class="st0" d="M15.3,59.2c-4.3,0-5.8-0.2-10.1,0c-0.7,0.1-1.4,0.1-2.3,0.1c-0.8,0-1.5,0-2.1,0.1
		c-0.2,0-0.2-0.1-0.2-0.3c0-0.2,0.1-0.3,0.2-0.3c0.8-0.1,1.5-0.3,2.1-0.9c0.6-0.5,1.2-1.1,1.6-1.9c0.4-0.7,0.8-1.5,1-2.4
		C5.9,52.7,6,52,6,51.2V8.4c0-1.8-0.6-3.1-1.7-4.2C3.1,3.2,1.7,2.7,0,2.6V2c3.2,0.2,6.4,0.2,9.7,0.2c1.6,0,3.1-0.1,4.6-0.2
		c1.5-0.1,3-0.2,4.5-0.3c0.2,0,0.2,0.1,0.3,0.3c0,0.2,0,0.3-0.2,0.4c-1.5,0.3-2.9,0.9-4.1,1.9c-1.2,1-1.8,2.3-1.8,4v37.3
		c-0.6,5.4,8.4,3.5,9.2,3.2c8.1-1.6,14.9-1.1,18.8-1C45.4,48,59,50,77.9,59.3c0.6,0.5,23.1,11.9,24.2,12.6s9.1,4.9,17.6,6
		c8,1,16.5-0.8,23.6-6.7c9.4-7,16.2-14,21.9-19.1c3.3-2.4,4.9-3.3,8.7-4.2c9.7-2.2,17.1,2.3,19.7,5.9c8.4,13.6,1.2,21.9-3,26
		c-3.6,3.5-5.2,4.7-12.1,9.6c6.3-4.8,13.1-11.8,14.7-15.5c4.4-8.1,0.1-17.5-3.3-19.7c-10.7-8.1-21.3-2.3-23.4,0.6
		c-1.4,1-9.5,9.8-21.7,21.1c-10.5,8.4-17.1,7.2-26.5,7c-19.6-2.8-26.1-9.1-41.2-15.8c-11.1-5-15-6.8-28.8-10.4
		C30.1,52.7,18.7,57,15.3,59.2z"/>
	<path id="XMLID_21_" class="st0" d="M430.3,4.9c-1,1.2-1.5,2.6-1.5,4.1v28.2c0,3.2-0.5,6.2-1.6,9.1c-1,2.8-2.5,5.4-4.4,7.5
		c-1.9,2.2-4.2,3.8-7,5.1s-5.7,1.9-9.1,1.9c-2.5,0-4.9-0.4-7.3-1.2c-2.4-0.8-4.6-1.9-6.6-3.3c-2-1.4-3.8-3.1-5.3-5.1
		c-1.5-2-2.7-4.1-3.5-6.5c-0.2-0.5-0.3-1.4-0.4-2.7c-0.1-1.3-0.2-2.8-0.3-4.6c-0.1-1.8-0.1-3.7-0.1-5.9c0-2.1,0-4.2,0-6.4
		c0-2,0-3.9,0-5.8c0-1.9,0-3.6,0-5.1c0-1,0-2,0-2.8c0-0.9,0-1.6,0-2.1c0-2.1-0.6-3.6-1.7-4.5c-1.1-0.9-2.6-1.5-4.5-2
		c-0.2-0.1-0.2-0.2-0.2-0.4c0-0.2,0.1-0.3,0.3-0.3c2.1,0.1,4.1,0.2,6.2,0.2c2,0.1,4.1,0.1,6.1,0.1c1,0,2,0,3,0c1,0,2.1,0,3.1-0.1
		c0.2,0,0.3,0.1,0.3,0.2c0.1,0.2,0,0.3-0.2,0.4c-0.6,0.3-1.2,0.7-1.7,1.1c-0.6,0.4-1.2,0.9-1.7,1.4c-0.5,0.5-1,1.1-1.3,1.7
		c-0.3,0.6-0.5,1.2-0.5,1.9c0,2.7,0,5.4,0,8.1s0,5.3-0.1,8s-0.1,5.4-0.1,8.1c0,2.7,0,5.4,0,8.1c0,2.4,0.4,4.5,1.2,6.5
		c0.8,1.9,2,3.6,3.5,5c1.5,1.4,3.2,2.5,5.2,3.2c2,0.8,4.2,1.1,6.5,1.1c2.4,0,4.6-0.4,6.6-1.2c2-0.8,3.8-1.9,5.2-3.3
		c1.5-1.4,2.6-3.1,3.5-5.1c0.9-2,1.3-4.2,1.3-6.6c0-2.6,0-5.3,0-7.9c0-2.7,0-5.4-0.1-8c-0.1-2.6-0.1-5.3-0.1-7.9s0-5.3,0-8
		c0-2.1-0.5-3.7-1.6-4.7c-1.1-1-2.6-1.6-4.6-1.9C417,2.4,417,2.2,417,2.1c0-0.2,0.1-0.3,0.3-0.3c0.9,0.1,1.8,0.2,2.7,0.2
		c0.9,0,1.8,0,2.7,0h3.7c1.1,0,2.3,0,3.3,0c1.1,0,2.2,0,3.4,0h0.9l0.1,0.6C432.6,2.9,431.3,3.6,430.3,4.9z"/>
	<path id="XMLID_23_" class="st0" d="M491.5,60.2c-1.3,0.3-2.6,0.5-3.9,0.5c-2,0-3.9-0.4-5.6-1.2c-1.7-0.8-3.3-1.9-4.7-3.2
		c-1.5-1.3-2.8-2.8-4-4.4c-1.2-1.6-2.4-3.3-3.5-4.9c-1.1-1.6-2.3-3.3-3.7-5.1c-1.4-1.8-2.7-3.2-4.1-4.4c-1-0.9-2.2-1.4-3.6-1.6
		c-1.3-0.2-2.7-0.3-4-0.3c-0.6,0-1.1,0-1.7,0c-0.6,0-1.1,0-1.7,0.1v15c0,2.1,0.6,3.9,1.9,5.4c1.3,1.5,2.9,2.3,5,2.5v0.6
		c-1.6-0.2-3.2-0.3-4.8-0.4c-1.6-0.1-3.2-0.2-4.8-0.2c-1.6,0-3.2,0.1-4.7,0.2c-1.6,0.1-3.1,0.3-4.7,0.5c-0.2,0.1-0.3,0-0.3-0.2
		c-0.1-0.2,0-0.3,0.2-0.4c1.5-0.7,2.8-1.7,3.8-3.1c1-1.4,1.5-3,1.5-4.6V9c0-1.7-0.6-3.1-1.8-4.4c-1.2-1.2-2.6-2.1-4.2-2.5
		c-0.2-0.1-0.2-0.2-0.2-0.3c0-0.2,0.1-0.2,0.3-0.2h1.5c0.8,0,1.6,0,2.3,0c0.8,0,1.5,0.1,2.3,0.1c1.6,0.2,3.1,0.2,4.7,0.2
		c1.7,0,3.3-0.1,5.1-0.2c0.9-0.1,1.7-0.1,2.5-0.1c0.8,0,1.6,0,2.5,0c2.2,0,4.3,0.3,6.4,0.8c2.1,0.5,3.9,1.3,5.6,2.4
		c1.6,1.1,2.9,2.6,3.9,4.3c1,1.8,1.5,3.9,1.5,6.5c0,1.7-0.3,3.3-0.8,4.9s-1.2,3.2-2.1,4.7c-0.9,1.5-1.8,2.9-3,4.2
		c-1.1,1.3-2.2,2.5-3.4,3.6c0.7,0.8,1.6,1.9,2.6,3.3c1,1.3,2,2.7,3,4.1c1.6,2.1,3.2,4.3,4.9,6.5c1.7,2.2,3.5,4.2,5.4,6
		c1.9,1.8,3.9,3.1,5.9,4.2c2,1,4.2,1.4,6.4,1.1l0.2,0.6C494,59.5,492.8,59.9,491.5,60.2z M467.9,14.1c-0.5-1.9-1.3-3.5-2.4-5.1
		c-1.1-1.5-2.4-2.7-3.9-3.7C460,4.4,458.2,4,456.1,4c-0.9,0-1.7,0.1-2.6,0.2c-0.9,0.1-1.7,0.4-2.5,0.7v26.4c1.2,0.2,2.4,0.4,3.6,0.4
		c1.2,0.1,2.4,0.1,3.5,0.1c3.9,0,6.7-1.1,8.2-3.3c1.6-2.2,2.3-5.1,2.3-8.9C468.7,17.8,468.4,15.9,467.9,14.1z"/>
	<path id="XMLID_26_" class="st0" d="M542.8,33.1c-1.1,0.6-1.6,1.6-1.6,3.1v19.7c0,0.1-0.1,0.1-0.2,0.2c-1.2,0.9-2.6,1.7-4.1,2.3
		c-1.5,0.6-3,1-4.6,1.3c-1.6,0.3-3.2,0.5-4.7,0.5c-1.6,0.1-3.1,0.1-4.6,0.1c-2.3,0-4.6-0.1-6.9-0.2c-4.1-0.3-7.8-1.3-11.1-3.1
		c-3.3-1.8-6.1-4.1-8.4-6.9c-2.3-2.8-4.1-6-5.3-9.6c-1.2-3.6-1.9-7.4-1.9-11.4c0-4.6,0.8-8.7,2.5-12.2c1.7-3.5,3.9-6.5,6.8-8.9
		s6.2-4.2,10.1-5.4c3.8-1.2,7.9-1.8,12.3-1.8c2.3,0,4.7,0.1,7,0.4c2.4,0.3,4.7,0.5,7,0.9c1,0.2,2.1,0.3,3.1,0.5c1,0.2,2,0.3,3.1,0.4
		c0.2,0,0.3,0.1,0.3,0.3c-0.1,1.9-0.3,3.7-0.5,5.5c-0.3,1.8-0.5,3.6-0.8,5.4c-0.1,0.4-0.1,0.7-0.2,1c-0.1,0.3-0.1,0.7-0.2,1
		c0,0.2-0.1,0.2-0.3,0.3c-0.2,0-0.3,0-0.4-0.2c-0.4-2.2-1.2-4.1-2.3-5.8c-1.1-1.6-2.4-2.9-4-4c-1.6-1.1-3.4-1.8-5.3-2.3
		c-2-0.5-4-0.7-6.1-0.7c-3.6,0-6.9,0.6-10,1.8c-3.1,1.2-5.8,2.9-8,5c-2.3,2.2-4.1,4.7-5.4,7.8c-1.3,3-2,6.4-2,10
		c0,3.9,0.7,7.7,2.2,11.2c1.4,3.5,3.4,6.6,5.9,9.2c2.5,2.6,5.5,4.7,8.9,6.2c3.4,1.5,7.2,2.3,11.2,2.3c1.7,0,3.4-0.2,5.2-0.6
		c1.8-0.4,3.3-1.2,4.5-2.5V36c0-1.2-0.4-2.1-1.2-2.5c-0.8-0.4-1.7-0.8-2.6-1.1c-0.4-0.1-0.8-0.2-1.2-0.4c-0.4-0.2-0.8-0.4-1.2-0.6
		c-0.2-0.1-0.2-0.2-0.2-0.3c0.1-0.1,0.2-0.2,0.3-0.2c3.1,0,6.2,0,9.2,0.1c3,0.1,6.1,0.2,9.2,0.3l0.1,0.6
		C545.1,32.1,543.9,32.5,542.8,33.1z"/>
</g>
<g id="XMLID_146_">
	<path id="XMLID_147_" class="st2" d="M231.1,87.6h6.8v1.8h-9V73.7h2.1V87.6z"/>
	<path id="XMLID_149_" class="st2" d="M253.2,87.7c0.7,0,1.2-0.1,1.7-0.3c0.5-0.2,0.9-0.5,1.3-0.9c0.4-0.4,0.6-0.9,0.8-1.4
		c0.2-0.5,0.3-1.2,0.3-1.8v-9.6h2.1v9.6c0,0.9-0.1,1.8-0.4,2.5s-0.7,1.5-1.2,2c-0.5,0.6-1.2,1-2,1.3c-0.8,0.3-1.7,0.5-2.6,0.5
		s-1.8-0.2-2.6-0.5c-0.8-0.3-1.4-0.8-2-1.3c-0.5-0.6-1-1.2-1.2-2s-0.4-1.6-0.4-2.5v-9.6h2.1v9.6c0,0.7,0.1,1.3,0.3,1.8
		c0.2,0.5,0.5,1,0.8,1.4c0.4,0.4,0.8,0.7,1.3,0.9S252.6,87.7,253.2,87.7z"/>
	<path id="XMLID_151_" class="st2" d="M273.6,81.3l-5.2-7.7h2.1c0.2,0,0.3,0,0.3,0.1s0.1,0.1,0.2,0.2l4.1,6.3
		c0.1-0.2,0.1-0.3,0.2-0.5l3.9-5.8c0.1-0.1,0.1-0.2,0.2-0.2s0.2-0.1,0.3-0.1h2l-5.2,7.6l5.4,8.2h-2.1c-0.2,0-0.3,0-0.4-0.1
		s-0.2-0.2-0.2-0.3l-4.2-6.6c-0.1,0.2-0.1,0.3-0.2,0.4l-4.1,6.2c-0.1,0.1-0.1,0.2-0.2,0.3c-0.1,0.1-0.2,0.1-0.4,0.1h-2L273.6,81.3z"
		/>
	<path id="XMLID_153_" class="st2" d="M297.1,87.7c0.7,0,1.2-0.1,1.7-0.3c0.5-0.2,0.9-0.5,1.3-0.9c0.4-0.4,0.6-0.9,0.8-1.4
		c0.2-0.5,0.3-1.2,0.3-1.8v-9.6h2.1v9.6c0,0.9-0.1,1.8-0.4,2.5c-0.3,0.8-0.7,1.5-1.2,2s-1.2,1-2,1.3c-0.8,0.3-1.7,0.5-2.6,0.5
		s-1.8-0.2-2.6-0.5c-0.8-0.3-1.4-0.8-2-1.3c-0.5-0.6-1-1.2-1.2-2s-0.4-1.6-0.4-2.5v-9.6h2.1v9.6c0,0.7,0.1,1.3,0.3,1.8
		c0.2,0.5,0.5,1,0.8,1.4s0.8,0.7,1.3,0.9C295.8,87.6,296.4,87.7,297.1,87.7z"/>
	<path id="XMLID_155_" class="st2" d="M316.2,82.8v6.6H314V73.7h4.5c1,0,1.9,0.1,2.6,0.3c0.7,0.2,1.3,0.5,1.8,0.9
		c0.5,0.4,0.8,0.8,1.1,1.4c0.2,0.5,0.3,1.1,0.3,1.8c0,0.6-0.1,1.1-0.3,1.6c-0.2,0.5-0.4,0.9-0.8,1.3c-0.3,0.4-0.7,0.7-1.2,1
		s-1,0.5-1.6,0.6c0.3,0.2,0.5,0.4,0.7,0.7l4.6,6.3h-1.9c-0.4,0-0.7-0.2-0.9-0.5l-4.1-5.6c-0.1-0.2-0.3-0.3-0.4-0.4
		c-0.1-0.1-0.4-0.1-0.7-0.1H316.2z M316.2,81.3h2.2c0.6,0,1.2-0.1,1.6-0.2c0.5-0.2,0.9-0.4,1.2-0.6c0.3-0.3,0.6-0.6,0.7-1
		s0.2-0.8,0.2-1.3c0-0.9-0.3-1.6-0.9-2.1c-0.6-0.5-1.5-0.7-2.8-0.7h-2.3V81.3z"/>
	<path id="XMLID_158_" class="st2" d="M340.9,83.2v6.3h-2.1v-6.3l-5.8-9.5h1.9c0.2,0,0.3,0,0.5,0.1c0.1,0.1,0.2,0.2,0.3,0.4l3.6,6.1
		c0.1,0.3,0.3,0.5,0.4,0.7c0.1,0.2,0.2,0.5,0.3,0.7c0.1-0.2,0.2-0.5,0.3-0.7c0.1-0.2,0.2-0.5,0.4-0.7l3.6-6.1
		c0.1-0.1,0.2-0.2,0.3-0.3c0.1-0.1,0.3-0.2,0.4-0.2h1.9L340.9,83.2z"/>
	<path id="XMLID_160_" class="st2" d="M374.6,76.1c-0.1,0.1-0.1,0.2-0.2,0.2c-0.1,0.1-0.2,0.1-0.3,0.1c-0.1,0-0.3-0.1-0.4-0.2
		c-0.2-0.1-0.4-0.3-0.6-0.4s-0.6-0.3-0.9-0.4s-0.8-0.2-1.3-0.2c-0.5,0-0.9,0.1-1.3,0.2c-0.4,0.1-0.7,0.3-0.9,0.5
		c-0.2,0.2-0.4,0.5-0.6,0.8c-0.1,0.3-0.2,0.6-0.2,1c0,0.4,0.1,0.8,0.3,1.1c0.2,0.3,0.5,0.5,0.9,0.7s0.8,0.4,1.2,0.5
		c0.5,0.2,0.9,0.3,1.4,0.5c0.5,0.2,0.9,0.3,1.4,0.5c0.5,0.2,0.9,0.5,1.2,0.8c0.4,0.3,0.6,0.7,0.9,1.1c0.2,0.4,0.3,1,0.3,1.6
		c0,0.7-0.1,1.3-0.4,1.9c-0.2,0.6-0.6,1.1-1,1.6c-0.5,0.4-1,0.8-1.7,1.1s-1.4,0.4-2.2,0.4c-1,0-1.9-0.2-2.8-0.6s-1.6-0.9-2.2-1.5
		l0.6-1c0.1-0.1,0.1-0.1,0.2-0.2c0.1-0.1,0.2-0.1,0.3-0.1c0.2,0,0.3,0.1,0.5,0.2c0.2,0.2,0.4,0.3,0.7,0.5c0.3,0.2,0.7,0.4,1.1,0.5
		c0.4,0.2,0.9,0.2,1.5,0.2c0.5,0,1-0.1,1.4-0.2c0.4-0.1,0.7-0.3,1-0.6c0.3-0.3,0.5-0.6,0.6-0.9c0.1-0.4,0.2-0.7,0.2-1.2
		c0-0.5-0.1-0.9-0.3-1.2c-0.2-0.3-0.5-0.6-0.9-0.8c-0.4-0.2-0.8-0.4-1.2-0.5s-0.9-0.3-1.4-0.4c-0.5-0.2-0.9-0.3-1.4-0.5
		c-0.5-0.2-0.9-0.5-1.2-0.8c-0.4-0.3-0.6-0.7-0.9-1.2c-0.2-0.5-0.3-1.1-0.3-1.8c0-0.6,0.1-1.1,0.3-1.6c0.2-0.5,0.5-1,0.9-1.4
		s0.9-0.7,1.5-1c0.6-0.2,1.3-0.4,2.1-0.4c0.9,0,1.7,0.1,2.4,0.4c0.7,0.3,1.4,0.7,1.9,1.2L374.6,76.1z"/>
	<path id="XMLID_162_" class="st2" d="M397.8,89.4h-2.1v-7.2h-8.5v7.2H385V73.7h2.1v7h8.5v-7h2.1V89.4z"/>
	<path id="XMLID_164_" class="st2" d="M423.1,81.6c0,1.2-0.2,2.3-0.6,3.3s-0.9,1.8-1.6,2.5c-0.7,0.7-1.5,1.3-2.5,1.7
		c-1,0.4-2,0.6-3.2,0.6c-1.2,0-2.2-0.2-3.2-0.6c-1-0.4-1.8-0.9-2.5-1.7c-0.7-0.7-1.2-1.6-1.6-2.5s-0.6-2.1-0.6-3.3s0.2-2.3,0.6-3.3
		s0.9-1.8,1.6-2.6c0.7-0.7,1.5-1.3,2.5-1.7c1-0.4,2-0.6,3.2-0.6c1.2,0,2.2,0.2,3.2,0.6s1.8,1,2.5,1.7c0.7,0.7,1.2,1.6,1.6,2.6
		S423.1,80.4,423.1,81.6z M420.9,81.6c0-1-0.1-1.8-0.4-2.6c-0.3-0.8-0.6-1.4-1.1-2c-0.5-0.5-1.1-0.9-1.8-1.2s-1.5-0.4-2.3-0.4
		c-0.8,0-1.6,0.1-2.3,0.4c-0.7,0.3-1.3,0.7-1.8,1.2c-0.5,0.5-0.9,1.2-1.1,2s-0.4,1.6-0.4,2.6c0,1,0.1,1.8,0.4,2.6s0.6,1.4,1.1,1.9
		c0.5,0.5,1.1,0.9,1.8,1.2c0.7,0.3,1.5,0.4,2.3,0.4c0.9,0,1.6-0.1,2.3-0.4s1.3-0.7,1.8-1.2c0.5-0.5,0.9-1.2,1.1-1.9
		C420.8,83.4,420.9,82.5,420.9,81.6z"/>
	<path id="XMLID_167_" class="st2" d="M435.2,83.5v5.9h-2.1V73.7h4.7c1,0,1.9,0.1,2.6,0.3s1.3,0.6,1.8,1c0.5,0.4,0.8,0.9,1.1,1.5
		c0.2,0.6,0.4,1.3,0.4,2c0,0.7-0.1,1.4-0.4,2c-0.3,0.6-0.6,1.1-1.1,1.6s-1.1,0.8-1.8,1c-0.7,0.2-1.6,0.4-2.5,0.4H435.2z M435.2,81.8
		h2.5c0.6,0,1.1-0.1,1.6-0.2c0.5-0.2,0.9-0.4,1.2-0.7c0.3-0.3,0.6-0.6,0.7-1s0.2-0.8,0.2-1.3c0-1-0.3-1.8-0.9-2.4
		c-0.6-0.6-1.6-0.8-2.8-0.8h-2.5V81.8z"/>
	<path id="XMLID_170_" class="st2" d="M455.5,83.5v5.9h-2.1V73.7h4.7c1,0,1.9,0.1,2.6,0.3s1.3,0.6,1.8,1c0.5,0.4,0.8,0.9,1.1,1.5
		c0.2,0.6,0.4,1.3,0.4,2c0,0.7-0.1,1.4-0.4,2c-0.3,0.6-0.6,1.1-1.1,1.6s-1.1,0.8-1.8,1c-0.7,0.2-1.6,0.4-2.5,0.4H455.5z M455.5,81.8
		h2.5c0.6,0,1.1-0.1,1.6-0.2c0.5-0.2,0.9-0.4,1.2-0.7c0.3-0.3,0.6-0.6,0.7-1s0.2-0.8,0.2-1.3c0-1-0.3-1.8-0.9-2.4
		c-0.6-0.6-1.6-0.8-2.8-0.8h-2.5V81.8z"/>
	<path id="XMLID_173_" class="st2" d="M475.9,89.4h-2.1V73.7h2.1V89.4z"/>
	<path id="XMLID_175_" class="st2" d="M488.5,73.7c0.1,0,0.2,0.1,0.3,0.3l9.1,11.9c0-0.2,0-0.4,0-0.6c0-0.2,0-0.4,0-0.5V73.7h1.9
		v15.8h-1.1c-0.2,0-0.3,0-0.4-0.1c-0.1-0.1-0.2-0.2-0.3-0.3l-9.1-11.9c0,0.2,0,0.4,0,0.5c0,0.2,0,0.3,0,0.5v11.2h-1.9V73.7h1.1
		C488.2,73.7,488.4,73.7,488.5,73.7z"/>
	<path id="XMLID_177_" class="st2" d="M517.4,87.9c0.4,0,0.8,0,1.2-0.1c0.4,0,0.7-0.1,1-0.2s0.6-0.2,0.9-0.3
		c0.3-0.1,0.6-0.2,0.8-0.4v-3.5h-2.4c-0.1,0-0.3,0-0.3-0.1c-0.1-0.1-0.1-0.2-0.1-0.3v-1.2h4.8v6.1c-0.4,0.3-0.8,0.5-1.2,0.7
		c-0.4,0.2-0.9,0.4-1.4,0.5c-0.5,0.1-1,0.2-1.6,0.3c-0.6,0.1-1.2,0.1-1.8,0.1c-1.1,0-2.2-0.2-3.1-0.6c-1-0.4-1.8-0.9-2.5-1.6
		c-0.7-0.7-1.2-1.6-1.6-2.5c-0.4-1-0.6-2.1-0.6-3.3c0-1.2,0.2-2.3,0.6-3.3c0.4-1,0.9-1.8,1.6-2.5c0.7-0.7,1.5-1.3,2.5-1.6
		c1-0.4,2.1-0.6,3.3-0.6c0.6,0,1.2,0,1.7,0.1c0.5,0.1,1,0.2,1.5,0.4s0.9,0.4,1.3,0.6s0.8,0.5,1.1,0.8l-0.6,1
		c-0.1,0.2-0.3,0.3-0.5,0.3c-0.1,0-0.2,0-0.4-0.1c-0.2-0.1-0.4-0.2-0.6-0.4c-0.2-0.1-0.5-0.3-0.8-0.4s-0.7-0.3-1.2-0.3
		c-0.4-0.1-1-0.1-1.6-0.1c-0.9,0-1.7,0.1-2.4,0.4c-0.7,0.3-1.3,0.7-1.8,1.2s-0.9,1.2-1.2,2c-0.3,0.8-0.4,1.6-0.4,2.6
		c0,1,0.1,1.9,0.4,2.7s0.7,1.4,1.2,2c0.5,0.5,1.1,1,1.8,1.2S516.6,87.9,517.4,87.9z"/>
	<path id="XMLID_179_" class="st2" d="M541.4,76.1c-0.1,0.1-0.1,0.2-0.2,0.2c-0.1,0.1-0.2,0.1-0.3,0.1c-0.1,0-0.3-0.1-0.4-0.2
		c-0.2-0.1-0.4-0.3-0.6-0.4s-0.6-0.3-0.9-0.4s-0.8-0.2-1.3-0.2c-0.5,0-0.9,0.1-1.3,0.2c-0.4,0.1-0.7,0.3-0.9,0.5
		c-0.2,0.2-0.4,0.5-0.6,0.8c-0.1,0.3-0.2,0.6-0.2,1c0,0.4,0.1,0.8,0.3,1.1c0.2,0.3,0.5,0.5,0.9,0.7s0.8,0.4,1.2,0.5
		c0.5,0.2,0.9,0.3,1.4,0.5c0.5,0.2,0.9,0.3,1.4,0.5c0.5,0.2,0.9,0.5,1.2,0.8c0.4,0.3,0.6,0.7,0.9,1.1c0.2,0.4,0.3,1,0.3,1.6
		c0,0.7-0.1,1.3-0.4,1.9c-0.2,0.6-0.6,1.1-1,1.6c-0.5,0.4-1,0.8-1.7,1.1s-1.4,0.4-2.2,0.4c-1,0-1.9-0.2-2.8-0.6s-1.6-0.9-2.2-1.5
		l0.6-1c0.1-0.1,0.1-0.1,0.2-0.2c0.1-0.1,0.2-0.1,0.3-0.1c0.2,0,0.3,0.1,0.5,0.2c0.2,0.2,0.4,0.3,0.7,0.5c0.3,0.2,0.7,0.4,1.1,0.5
		c0.4,0.2,0.9,0.2,1.5,0.2c0.5,0,1-0.1,1.4-0.2c0.4-0.1,0.7-0.3,1-0.6c0.3-0.3,0.5-0.6,0.6-0.9c0.1-0.4,0.2-0.7,0.2-1.2
		c0-0.5-0.1-0.9-0.3-1.2c-0.2-0.3-0.5-0.6-0.9-0.8c-0.4-0.2-0.8-0.4-1.2-0.5s-0.9-0.3-1.4-0.4c-0.5-0.2-0.9-0.3-1.4-0.5
		c-0.5-0.2-0.9-0.5-1.2-0.8c-0.4-0.3-0.6-0.7-0.9-1.2c-0.2-0.5-0.3-1.1-0.3-1.8c0-0.6,0.1-1.1,0.3-1.6c0.2-0.5,0.5-1,0.9-1.4
		s0.9-0.7,1.5-1c0.6-0.2,1.3-0.4,2.1-0.4c0.9,0,1.7,0.1,2.4,0.4c0.7,0.3,1.4,0.7,1.9,1.2L541.4,76.1z"/>
</g>
</svg>
